<?xml version="1.0" encoding="UTF-8" standalone="no"?>
<!DOCTYPE svg PUBLIC "-//W3C//DTD SVG 1.1//EN" "http://www.w3.org/Graphics/SVG/1.1/DTD/svg11.dtd">
<!-- Создано Microsoft Visio, экспорт SVG logo.svg Страница-1 -->
<svg xmlns="http://www.w3.org/2000/svg" xmlns:xlink="http://www.w3.org/1999/xlink" xmlns:ev="http://www.w3.org/2001/xml-events"
		xmlns:v="http://schemas.microsoft.com/visio/2003/SVGExtensions/" width="2.73676in" height="0.369886in"
		viewBox="0 0 197.047 26.6318" xml:space="preserve" color-interpolation-filters="sRGB" class="st7">
	<v:documentProperties v:langID="1049" v:metric="true" v:viewMarkup="false"/>

	<style type="text/css">
	<![CDATA[
		.st1 {fill:#206fb6;stroke:none;stroke-linecap:butt;stroke-width:0.0283465}
		.st2 {fill:#3c8a3d;stroke:none;stroke-linecap:butt;stroke-width:0.0283465}
		.st3 {fill:#6baa37;stroke:none;stroke-linecap:butt;stroke-width:0.0283465}
		.st4 {fill:#3cace2;stroke:none;stroke-linecap:butt;stroke-width:0.0283465}
		.st5 {fill:#3cace2;stroke:none;stroke-linecap:butt;stroke-width:0.0283465}
		.st6 {fill:#a3c62b;stroke:none;stroke-linecap:butt;stroke-width:0.0283465}
		.st7 {fill:none;fill-rule:evenodd;font-size:12px;overflow:visible;stroke-linecap:square;stroke-miterlimit:3}
	]]>
	</style>

	<g v:mID="0" v:index="1" v:groupContext="foregroundPage">
		<title>Страница-1</title>
		<v:pageProperties v:drawingScale="1" v:pageScale="1" v:drawingUnits="19" v:shadowOffsetX="9" v:shadowOffsetY="-9"/>
		<g id="group1-1" transform="translate(0.0283465,-0.0283465)" v:mID="1" v:groupContext="group">
			<title>__x0023_Layer_x0020_1</title>
			<g id="group2-2" v:mID="2" v:groupContext="group">
				<title>_1062442352</title>
				<g id="group3-3" v:mID="3" v:groupContext="group">
					<title>Лист.3</title>
					<g id="group4-4" transform="translate(36.0295,-12.4999)" v:mID="4" v:groupContext="group">
						<title>Лист.4</title>
						<g id="shape5-5" v:mID="5" v:groupContext="shape" transform="translate(1.4988E-14,-0.230457)">
							<title>Лист.5</title>
							<path d="M9.89 17.22 C9.89 17.72 9.76 18.19 9.53 18.64 C9.29 19.09 8.97 19.44 8.55 19.69 C9.82 20.23
										 10.46 21.22 10.46 22.67 C10.46 23.87 10.08 24.83 9.33 25.55 C8.58 26.27 7.54 26.63 6.21
										 26.63 L0 26.63 L0 13.27 L5.68 13.27 C6.93 13.27 7.94 13.62 8.72 14.33 C9.49 15.03 9.89 16
										 9.89 17.22 ZM5.47 15.71 L2.85 15.71 L2.85 18.75 L5.47 18.75 C5.95 18.75 6.34 18.63 6.62
										 18.37 C6.91 18.12 7.06 17.77 7.07 17.32 C7.09 16.83 6.95 16.45 6.65 16.15 C6.36 15.86 5.96
										 15.71 5.47 15.71 ZM5.89 21.09 L2.85 21.09 L2.85 24.15 L6.02 24.15 C6.51 24.15 6.89 24.02
										 7.17 23.75 C7.45 23.49 7.6 23.13 7.63 22.67 C7.65 22.09 7.46 21.65 7.04 21.35 C6.78 21.18
										 6.4 21.09 5.89 21.09 Z" class="st1"/>
						</g>
						<g id="shape6-7" v:mID="6" v:groupContext="shape" transform="translate(12.829,-0.193323)">
							<title>Лист.6</title>
							<path d="M8.43 18.95 L0.86 26.63 L0 26.63 L0 13.21 L2.87 13.21 L2.87 20.8 L10.38 13.15 L11.28 13.15 L11.28
										 26.59 L8.43 26.59 L8.43 18.95 Z" class="st1"/>
						</g>
						<g id="shape7-9" v:mID="7" v:groupContext="shape" transform="translate(26.0039,-0.230457)">
							<title>Лист.7</title>
							<path d="M3.57 15.73 L0 15.73 L0 13.25 L9.91 13.25 L9.91 15.73 L6.35 15.73 L6.35 26.63 L3.57 26.63 L3.57
										 15.73 Z" class="st1"/>
						</g>
						<g id="shape8-11" v:mID="8" v:groupContext="shape" transform="translate(37.7989,-0.230457)">
							<title>Лист.8</title>
							<path d="M8.2 13.25 L8.2 15.75 L2.89 15.75 L2.89 18.47 L7.86 18.47 L7.86 20.97 L2.89 20.97 L2.89 24.03
										 L8.36 24.03 L8.36 26.63 L0 26.63 L0 13.25 L8.2 13.25 Z" class="st1"/>
						</g>
						<g id="shape9-13" v:mID="9" v:groupContext="shape" transform="translate(48.7383,-0.230457)">
							<title>Лист.9</title>
							<path d="M2.81 15.75 L2.81 18.22 L5.72 18.22 C7.25 18.22 8.42 18.6 9.24 19.37 C10.05 20.13 10.46 21.12
										 10.46 22.33 C10.46 23.57 10.05 24.59 9.23 25.41 C8.4 26.23 7.23 26.63 5.72 26.63 L0 26.63
										 L0 13.25 L9.37 13.25 L9.37 15.75 L2.81 15.75 ZM5.7 20.61 L2.81 20.61 L2.81 24.13 L5.7 24.13
										 C6.32 24.13 6.81 23.96 7.15 23.61 C7.49 23.26 7.67 22.85 7.67 22.35 C7.67 21.85 7.49 21.44
										 7.15 21.11 C6.81 20.77 6.32 20.61 5.7 20.61 Z" class="st1"/>
						</g>
						<g id="shape10-15" v:mID="10" v:groupContext="shape" transform="translate(60.6484,-0.0955276)">
							<title>Лист.10</title>
							<path d="M0 19.82 C0 17.69 0.68 16.01 2.03 14.79 C3.38 13.56 4.99 12.95 6.85 12.98 C8.33 12.98 9.65 13.38
										 10.83 14.19 C12 15 12.73 16.18 13.02 17.74 L10.25 17.74 C9.68 16.29 8.54 15.56 6.85 15.56
										 C5.66 15.56 4.7 15.95 3.98 16.74 C3.25 17.52 2.89 18.55 2.89 19.82 C2.89 21 3.25 21.99 3.98
										 22.81 C4.7 23.62 5.66 24.03 6.83 24.03 C7.68 24.03 8.42 23.83 9.05 23.42 C9.67 23.01 10.09
										 22.41 10.31 21.62 L13.06 21.62 C12.79 23.28 12.07 24.53 10.9 25.37 C9.73 26.21 8.38 26.63
										 6.85 26.63 C5.96 26.63 5.1 26.48 4.29 26.18 C3.47 25.88 2.74 25.45 2.1 24.9 C1.47 24.35
										 0.96 23.63 0.57 22.75 C0.19 21.87 0 20.9 0 19.82 Z" class="st1"/>
						</g>
						<g id="shape11-17" v:mID="11" v:groupContext="shape" transform="translate(75.947,-0.230457)">
							<title>Лист.11</title>
							<path d="M2.85 13.25 L2.85 18.77 C4.06 18.77 4.83 18.69 5.16 18.53 C5.48 18.35 5.73 18.04 5.91 17.62
										 C6.09 17.19 6.28 16.52 6.5 15.62 C7.07 13.54 8.6 12.76 11.07 13.27 L11.07 15.22 C10.52 15.17
										 10.1 15.24 9.8 15.43 C9.5 15.62 9.28 15.96 9.14 16.46 C8.69 18.16 8.13 19.34 7.46 20.02
										 L11.55 26.21 L11.55 26.63 L8.32 26.63 L4.95 21.13 C4.61 21.21 3.91 21.26 2.85 21.26 L2.85
										 26.63 L0 26.63 L0 13.25 L2.85 13.25 Z" class="st1"/>
						</g>
						<g id="shape12-19" v:mID="12" v:groupContext="shape" transform="translate(89.2732,-0.0663307)">
							<title>Лист.12</title>
							<path d="M6.24 14.92 C5.33 14.93 4.53 15.15 3.84 15.57 C3.16 15.99 2.64 16.6 2.31 17.4 L0.15 17.4 C0.5
										 15.95 1.24 14.84 2.38 14.07 C3.52 13.3 4.8 12.91 6.24 12.91 C8.13 12.9 9.73 13.52 11.03
										 14.77 C12.33 16.01 12.98 17.68 12.98 19.78 C12.98 21.16 12.67 22.39 12.03 23.45 C11.39 24.51
										 10.56 25.3 9.53 25.84 C8.51 26.37 7.38 26.63 6.16 26.62 C4.68 26.62 3.36 26.22 2.21 25.43
										 C1.05 24.63 0.32 23.46 0 21.92 L2.18 21.92 C2.46 22.78 2.96 23.45 3.68 23.92 C4.4 24.38
										 5.23 24.61 6.18 24.61 C7.36 24.62 8.37 24.27 9.19 23.55 C10.01 22.83 10.49 21.89 10.61 20.71
										 L5.28 20.71 L5.28 18.86 L10.65 18.86 C10.54 17.68 10.07 16.73 9.25 16 C8.44 15.27 7.43 14.91
										 6.24 14.92 Z" class="st2"/>
						</g>
						<g id="shape13-21" v:mID="13" v:groupContext="shape" transform="translate(104.074,-0.230457)">
							<title>Лист.13</title>
							<path d="M10.57 26.63 L8.34 26.63 L8.34 20.67 L2.22 20.67 L2.22 26.63 L0 26.63 L0 13.25 L2.22 13.25 L2.22
										 18.62 L8.34 18.62 L8.34 13.25 L10.57 13.25 L10.57 26.63 Z" class="st2"/>
						</g>
						<g id="shape14-23" v:mID="14" v:groupContext="shape" transform="translate(117.248,-0.230457)">
							<title>Лист.14</title>
							<path d="M8.15 13.25 L8.15 15.2 L2.24 15.2 L2.24 18.74 L7.82 18.74 L7.82 20.7 L2.24 20.7 L2.24 24.61
										 L8.26 24.61 L8.26 26.63 L0 26.63 L0 13.25 L8.15 13.25 Z" class="st2"/>
						</g>
						<g id="shape15-25" v:mID="15" v:groupContext="shape" transform="translate(127.554,-0.230457)">
							<title>Лист.15</title>
							<path d="M2.24 26.63 L0 26.63 L0 13.25 L5.55 13.25 C6.98 13.25 8.13 13.7 8.99 14.61 C9.84 15.53 10.27
										 16.65 10.27 17.97 C10.27 19.27 9.84 20.37 8.98 21.27 C8.12 22.17 6.97 22.62 5.55 22.62 L2.24
										 22.62 L2.24 26.63 ZM2.2 20.67 L5.55 20.67 C6.3 20.67 6.91 20.4 7.4 19.87 C7.88 19.34 8.13
										 18.69 8.13 17.91 C8.13 17.12 7.89 16.47 7.41 15.95 C6.93 15.44 6.31 15.18 5.55 15.18 L2.2
										 15.18 L2.2 20.67 Z" class="st2"/>
						</g>
						<g id="shape16-27" v:mID="16" v:groupContext="shape" transform="translate(139.294,-0.230457)">
							<title>Лист.16</title>
							<path d="M7.97 15.22 L2.24 15.22 L2.24 26.63 L0 26.63 L0 13.25 L7.97 13.25 L7.97 15.22 Z" class="st2"/>
						</g>
						<g id="shape17-29" v:mID="17" v:groupContext="shape" transform="translate(147.326,-3.90799E-14)">
							<title>Лист.17</title>
							<path d="M13.63 19.71 C13.63 21.75 13 23.41 11.72 24.7 C10.45 25.99 8.8 26.63 6.79 26.63 C4.88 26.63
										 3.27 26 1.96 24.75 C0.65 23.49 0 21.81 0 19.71 C0 17.61 0.66 15.93 1.99 14.67 C3.31 13.42
										 4.93 12.79 6.82 12.79 C8.72 12.79 10.34 13.42 11.66 14.67 C12.97 15.93 13.63 17.61 13.63
										 19.71 ZM3.57 16.16 C2.69 17.02 2.26 18.2 2.26 19.71 C2.26 21.22 2.69 22.39 3.56 23.25 C4.42
										 24.1 5.51 24.53 6.82 24.53 C8.14 24.53 9.23 24.1 10.11 23.25 C10.98 22.39 11.42 21.22 11.42
										 19.71 C11.42 18.23 10.98 17.06 10.11 16.18 C9.23 15.31 8.14 14.87 6.85 14.87 C5.53 14.87
										 4.44 15.3 3.57 16.16 Z" class="st2"/>
						</g>
					</g>
					<g id="group18-31" v:mID="18" v:groupContext="group">
						<title>Лист.18</title>
						<g id="shape19-32" v:mID="19" v:groupContext="shape">
							<title>Лист.19</title>
							<path d="M6.06 12.56 L0 18.62 L8.01 18.62 L8.01 26.63 L14.07 20.57 L14.07 12.56 L6.06 12.56 Z"
									class="st3"/>
						</g>
						<g id="shape20-34" v:mID="20" v:groupContext="shape" transform="translate(0.594992,6.03961E-14)">
							<title>Лист.20</title>
							<path d="M6.06 0.44 L0 6.5 L19.54 6.5 L19.54 26.63 L25.6 20.57 L25.6 0.44 L6.06 0.44 Z" class="st4"/>
						</g>
						<g id="shape21-36" v:mID="21" v:groupContext="shape" transform="translate(20.1311,6.03961E-14)">
							<title>Лист.21</title>
							<path d="M0 6.5 L6.06 0.44 L0 26.63 L0 6.5 Z" class="st1"/>
						</g>
						<g id="shape22-38" v:mID="22" v:groupContext="shape" transform="translate(0.594992,-20.1328)">
							<title>Лист.22</title>
							<path d="M0 26.63 L19.54 26.63 L25.6 20.57 L0 26.63 Z" class="st5"/>
						</g>
						<g id="shape23-40" v:mID="23" v:groupContext="shape" transform="translate(20.1311,6.03961E-14)">
							<title>Лист.23</title>
							<path d="M6.06 20.57 L0 26.63 L6.06 0.44 L6.06 20.57 Z" class="st5"/>
						</g>
						<g id="shape24-42" v:mID="24" v:groupContext="shape" transform="translate(8.00702,-4.26326E-14)">
							<title>Лист.24</title>
							<path d="M0 18.62 L0 26.63 L6.06 12.56 L0 18.62 Z" class="st2"/>
						</g>
						<g id="shape25-44" v:mID="25" v:groupContext="shape" transform="translate(2.8777E-13,-8.00759)">
							<title>Лист.25</title>
							<path d="M0 26.63 L8.01 26.63 L14.07 20.57 L0 26.63 Z" class="st3"/>
						</g>
						<g id="shape26-46" v:mID="26" v:groupContext="shape" transform="translate(2.8777E-13,-8.00759)">
							<title>Лист.26</title>
							<path d="M0 26.63 L14.07 20.57 L6.06 20.57 L0 26.63 Z" class="st6"/>
						</g>
					</g>
				</g>
				<g id="group27-48" transform="translate(36.1193,-0.068315)" v:mID="27" v:groupContext="group">
					<title>Лист.27</title>
					<g id="shape28-49" v:mID="28" v:groupContext="shape" transform="translate(-2.9976E-15,-1.07206)">
						<title>Лист.28</title>
						<path d="M5.35 21.29 C5.35 21.97 5.06 22.44 4.48 22.73 C5.28 23 5.68 23.58 5.68 24.45 C5.68 25.11 5.46 25.64
									 5.04 26.04 C4.62 26.43 4.04 26.63 3.32 26.63 L0 26.63 L0 19.2 L3.01 19.2 C3.71 19.2 4.28 19.38
									 4.71 19.74 C5.13 20.1 5.35 20.61 5.35 21.29 ZM2.93 20.28 L1.23 20.28 L1.23 22.32 L2.93 22.32
									 C3.73 22.32 4.13 21.99 4.14 21.33 C4.14 20.97 4.03 20.71 3.81 20.54 C3.6 20.36 3.3 20.28 2.93
									 20.28 ZM3.11 23.33 L1.23 23.33 L1.23 25.55 L3.25 25.55 C3.6 25.55 3.89 25.45 4.11 25.26 C4.33
									 25.06 4.44 24.79 4.46 24.45 C4.46 24.07 4.33 23.78 4.08 23.57 C3.86 23.41 3.54 23.33 3.11 23.33
									 Z" class="st5"/>
					</g>
					<g id="shape29-51" v:mID="29" v:groupContext="shape" transform="translate(7.09965,-1.06129)">
						<title>Лист.29</title>
						<path d="M4.97 21.57 L0.42 26.63 L0 26.63 L0 19.19 L1.23 19.19 L1.23 21.9 L1.15 24.17 L5.66 19.17 L6.1 19.17
									 L6.1 26.62 L4.88 26.62 L4.88 23.93 L4.97 21.57 Z" class="st5"/>
					</g>
					<g id="shape30-53" v:mID="30" v:groupContext="shape" transform="translate(14.326,-1.07206)">
						<title>Лист.30</title>
						<path d="M2.15 20.3 L0 20.3 L0 19.2 L5.52 19.2 L5.52 20.3 L3.36 20.3 L3.36 26.63 L2.15 26.63 L2.15 20.3 Z"
								class="st5"/>
					</g>
					<g id="shape31-55" v:mID="31" v:groupContext="shape" transform="translate(20.9687,-1.07206)">
						<title>Лист.31</title>
						<path d="M4.52 19.2 L4.52 20.29 L1.24 20.29 L1.24 22.25 L4.34 22.25 L4.34 23.34 L1.24 23.34 L1.24 25.51 L4.58
									 25.51 L4.58 26.63 L0 26.63 L0 19.2 L4.52 19.2 Z" class="st5"/>
					</g>
					<g id="shape32-57" v:mID="32" v:groupContext="shape" transform="translate(27.0918,-1.07206)">
						<title>Лист.32</title>
						<path d="M1.22 20.3 L1.22 22.06 L3.07 22.06 C3.92 22.06 4.56 22.27 5.01 22.68 C5.45 23.1 5.68 23.64 5.68
									 24.31 C5.68 24.98 5.45 25.54 5 25.97 C4.54 26.41 3.9 26.63 3.07 26.63 L0 26.63 L0 19.2 L5.06
									 19.2 L5.06 20.3 L1.22 20.3 ZM3.07 23.1 L1.22 23.1 L1.22 25.54 C1.35 25.54 1.54 25.54 1.79 25.54
									 C2.05 25.54 2.28 25.54 2.49 25.54 C2.7 25.54 2.89 25.54 3.07 25.54 C3.51 25.54 3.86 25.42 4.1
									 25.19 C4.35 24.96 4.47 24.66 4.47 24.32 C4.47 23.96 4.35 23.67 4.1 23.44 C3.86 23.21 3.51 23.1
									 3.07 23.1 Z" class="st5"/>
					</g>
					<g id="shape33-59" v:mID="33" v:groupContext="shape" transform="translate(33.6495,-0.998079)">
						<title>Лист.33</title>
						<path d="M0 22.85 C0 21.69 0.37 20.77 1.1 20.08 C1.83 19.39 2.72 19.04 3.78 19.04 C4.28 19.04 4.76 19.13
									 5.2 19.31 C5.65 19.49 6.06 19.77 6.41 20.15 C6.76 20.53 7 20.99 7.13 21.53 L5.94 21.53 C5.58
									 20.64 4.86 20.18 3.77 20.17 C3.01 20.17 2.4 20.42 1.94 20.92 C1.47 21.42 1.24 22.06 1.24 22.85
									 C1.24 23.6 1.48 24.23 1.95 24.74 C2.42 25.25 3.02 25.51 3.77 25.51 C4.29 25.51 4.75 25.38 5.14
									 25.13 C5.53 24.87 5.81 24.5 5.97 24.02 L7.17 24.02 C7 24.88 6.59 25.53 5.95 25.97 C5.31 26.41
									 4.58 26.63 3.77 26.63 C2.71 26.63 1.82 26.29 1.09 25.61 C0.37 24.92 0 24.01 0 22.85 Z"
								class="st5"/>
					</g>
					<g id="shape34-61" v:mID="34" v:groupContext="shape" transform="translate(42.1503,-1.07206)">
						<title>Лист.34</title>
						<path d="M1.24 19.2 L1.24 22.49 C1.98 22.49 2.46 22.43 2.7 22.31 C2.89 22.21 3.05 22.01 3.17 21.72 C3.29
									 21.44 3.42 21.05 3.54 20.55 C3.69 20.01 3.95 19.62 4.31 19.38 C4.67 19.13 5.2 19.08 5.91 19.21
									 L5.91 20.06 C5.53 20.03 5.25 20.07 5.09 20.19 C4.92 20.29 4.79 20.54 4.68 20.91 C4.41 21.9 4.09
									 22.56 3.71 22.9 L6.15 26.45 L6.15 26.63 L4.75 26.63 L2.63 23.38 C2.42 23.46 1.96 23.5 1.24 23.5
									 L1.24 26.63 L0 26.63 L0 19.2 L1.24 19.2 Z" class="st5"/>
					</g>
					<g id="shape35-63" v:mID="35" v:groupContext="shape" transform="translate(48.5059,-1.07206)">
						<title>Лист.35</title>
						<path d="M5.41 25.09 L2.02 25.09 L1.29 26.63 L0 26.63 L0 26.47 L3.44 19.15 L4.01 19.15 L7.43 26.47 L7.43
									 26.63 L6.14 26.63 L5.41 25.09 ZM3.72 21.08 L2.42 24.05 L5.02 24.05 L3.72 21.08 Z" class="st5"/>
					</g>
					<g id="shape36-65" v:mID="36" v:groupContext="shape" transform="translate(56.2949,-1.07206)">
						<title>Лист.36</title>
						<path d="M0 26.45 L1.88 23.85 C1.4 23.69 1.03 23.41 0.75 23.02 C0.48 22.63 0.34 22.18 0.33 21.67 C0.33 20.97
									 0.56 20.39 1.03 19.91 C1.5 19.44 2.12 19.2 2.91 19.2 L5.97 19.2 L5.97 26.63 L4.73 26.63 L4.73
									 24.04 L3.1 24.04 L1.33 26.63 L0 26.63 L0 26.45 ZM2.92 23.02 L4.75 23.02 L4.75 20.29 L2.92 20.29
									 C2.51 20.29 2.17 20.41 1.92 20.66 C1.66 20.91 1.53 21.24 1.53 21.63 C1.53 22.04 1.66 22.37 1.92
									 22.63 C2.17 22.89 2.51 23.02 2.92 23.02 Z" class="st5"/>
					</g>
					<g id="shape37-67" v:mID="37" v:groupContext="shape" transform="translate(66.0574,-1.07206)">
						<title>Лист.37</title>
						<path d="M2.15 20.3 L0 20.3 L0 19.2 L5.52 19.2 L5.52 20.3 L3.36 20.3 L3.36 26.63 L2.15 26.63 L2.15 20.3 Z"
								class="st5"/>
					</g>
					<g id="shape38-69" v:mID="38" v:groupContext="shape" transform="translate(72.0955,-0.980504)">
						<title>Лист.38</title>
						<path d="M3.46 20.13 C2.96 20.14 2.52 20.26 2.13 20.49 C1.75 20.72 1.47 21.06 1.28 21.51 L0.08 21.51 C0.28
									 20.7 0.69 20.09 1.32 19.66 C1.95 19.23 2.67 19.02 3.46 19.02 C4.51 19.01 5.4 19.35 6.12 20.05
									 C6.84 20.74 7.2 21.67 7.2 22.83 C7.2 23.6 7.03 24.28 6.67 24.86 C6.32 25.45 5.86 25.89 5.29
									 26.19 C4.72 26.49 4.1 26.63 3.42 26.62 C2.6 26.62 1.87 26.4 1.23 25.96 C0.59 25.52 0.18 24.87
									 0 24.01 L1.21 24.01 C1.37 24.5 1.64 24.87 2.04 25.12 C2.44 25.38 2.9 25.51 3.43 25.51 C4.09
									 25.52 4.64 25.32 5.1 24.92 C5.56 24.52 5.82 24 5.89 23.35 L2.93 23.35 L2.93 22.32 L5.91 22.32
									 C5.85 21.67 5.59 21.14 5.14 20.73 C4.68 20.32 4.12 20.12 3.46 20.13 Z" class="st5"/>
					</g>
					<g id="shape39-71" v:mID="39" v:groupContext="shape" transform="translate(80.7126,8.52651E-14)">
						<title>Лист.39</title>
						<path d="M5.46 25.56 L0 25.56 L0 18.13 L1.24 18.13 L1.24 24.43 L4.45 24.43 L4.45 18.13 L5.69 18.13 L5.69
									 24.5 L6.56 24.5 L6.56 26.63 L5.46 26.63 L5.46 25.56 Z" class="st5"/>
					</g>
				</g>
			</g>
		</g>
	</g>
</svg>
